<svg width="32" height="31" viewBox="0 0 32 31" fill="none" xmlns="http://www.w3.org/2000/svg">
<path fill-rule="evenodd" clip-rule="evenodd" d="M19.8953 10.5835L18.4834 10.5843C17.3762 10.5843 17.1616 11.0762 17.1616 11.7977V13.3899H19.8025L19.4584 15.8842H17.1616V22.2826H14.4081V15.8842H12.1056V13.3899H14.4081V11.5514C14.4081 9.41653 15.8022 8.25486 17.8375 8.25486C18.8125 8.25486 19.6506 8.32236 19.8953 8.35305V10.5835ZM16 1.24097C7.71625 1.24097 1 7.52103 1 15.2687C1 23.0156 7.71625 29.2965 16 29.2965C24.2847 29.2965 31 23.0156 31 15.2687C31 7.52103 24.2847 1.24097 16 1.24097Z" fill="#BDC4CD"/>
</svg>
