<svg width="32" height="31" viewBox="0 0 32 31" fill="none" xmlns="http://www.w3.org/2000/svg">
<path fill-rule="evenodd" clip-rule="evenodd" d="M16.0175 17.9759C17.6103 17.9759 18.9022 16.7713 18.9022 15.2844C18.9022 13.7983 17.6103 12.5936 16.0175 12.5936C14.4247 12.5936 13.1328 13.7983 13.1328 15.2844C13.1328 16.7713 14.4247 17.9759 16.0175 17.9759ZM19.3392 12.5281H21.367C21.5986 12.5281 21.787 12.3527 21.787 12.137V10.2442C21.787 10.0285 21.5986 9.85315 21.367 9.85315H19.3392C19.1076 9.85315 18.9192 10.0285 18.9192 10.2442V12.137C18.9192 12.3527 19.1076 12.5281 19.3392 12.5281ZM23.5 20.6186C23.5 21.5374 22.7022 22.2826 21.7169 22.2826H10.2831C9.29875 22.2826 8.5 21.5374 8.5 20.6186V9.91803C8.5 8.99921 9.29875 8.25486 10.2831 8.25486H21.7169C22.7022 8.25486 23.5 8.99921 23.5 9.91803V20.6186ZM16 1.24097C7.71531 1.24097 1 7.52103 1 15.2687C1 23.0156 7.71531 29.2965 16 29.2965C24.2847 29.2965 31 23.0156 31 15.2687C31 7.52103 24.2847 1.24097 16 1.24097ZM20.5804 15.2847C20.5804 17.6317 18.5339 19.5421 16.0176 19.5421C13.5014 19.5421 11.4548 17.6317 11.4548 15.2847C11.4548 14.8954 11.5111 14.5176 11.617 14.159H10.2136V20.2593C10.2136 20.4759 10.4011 20.6512 10.6326 20.6512H21.4017C21.6342 20.6512 21.8217 20.4759 21.8217 20.2593V14.159H20.4183C20.5242 14.5176 20.5804 14.8954 20.5804 15.2847Z" fill="#BDC4CD"/>
</svg>
