<svg width="32" height="31" viewBox="0 0 32 31" fill="none" xmlns="http://www.w3.org/2000/svg">
<path fill-rule="evenodd" clip-rule="evenodd" d="M23.5 22.2695H20.3922V17.721C20.3922 16.6365 20.3716 15.2416 18.7769 15.2416C17.1597 15.2416 16.9131 16.4234 16.9131 17.6438V22.2695H13.8081V12.9165H16.7875V14.1956H16.8306C17.245 13.46 18.2594 12.6841 19.7716 12.6841C22.9187 12.6841 23.5 14.6208 23.5 17.1397V22.2695ZM10.3038 11.6391C9.30531 11.6391 8.5 10.8833 8.5 9.95309C8.5 9.02288 9.30531 8.26713 10.3038 8.26713C11.2975 8.26713 12.1047 9.02288 12.1047 9.95309C12.1047 10.8833 11.2975 11.6391 10.3038 11.6391ZM11.8581 22.2695H8.74656V12.9165H11.8581V22.2695ZM16 1.24097C7.71531 1.24097 1 7.52103 1 15.2687C1 23.0156 7.71531 29.2965 16 29.2965C24.2847 29.2965 31 23.0156 31 15.2687C31 7.52103 24.2847 1.24097 16 1.24097Z" fill="#BDC4CD"/>
</svg>
