<svg width="104" height="24" viewBox="0 0 104 24" fill="none" xmlns="http://www.w3.org/2000/svg">
<path d="M28.1176 3.23396H25.5789V3.93336H27.3795C27.2904 4.91421 26.4116 5.3325 25.582 5.3325C24.5206 5.3325 23.5944 4.55715 23.5944 3.47036C23.5944 2.41174 24.4773 1.59647 25.5842 1.59647C26.4385 1.59647 26.9417 2.10189 26.9417 2.10189L27.4692 1.59476C27.4692 1.59476 26.7921 0.89502 25.5573 0.89502C23.985 0.89502 22.7687 2.1271 22.7687 3.45782C22.7687 4.76196 23.9129 6.03338 25.5973 6.03338C27.0791 6.03338 28.1637 5.09119 28.1637 3.69775C28.1637 3.40376 28.1176 3.23396 28.1176 3.23396Z" fill="white"/>
<path d="M28.5959 14.5065H34.1744C34.1783 14.5212 34.2752 14.8925 34.2752 15.5254C34.2752 18.5874 31.8921 20.6581 28.6364 20.6581C24.9347 20.6581 22.4205 17.864 22.4205 14.9986C22.4205 12.0743 25.0934 9.36685 28.5484 9.36697C31.2617 9.36697 32.7494 10.9046 32.7494 10.9046L31.5903 12.0189C31.5903 12.0189 30.4844 10.9081 28.6076 10.9081C26.1751 10.9081 24.235 12.6996 24.235 15.0259C24.235 17.4138 26.2702 19.1176 28.6025 19.1176C30.4255 19.1176 32.3567 18.1985 32.5523 16.0434H28.5959V14.5065Z" fill="white"/>
<path fill-rule="evenodd" clip-rule="evenodd" d="M34.9869 16.9927C34.9869 15.0549 36.6273 13.3935 38.9165 13.3935C40.798 13.3935 42.8385 14.6313 42.8385 17.0349C42.8385 19.132 41.0843 20.6515 38.9431 20.6515C36.5779 20.6515 34.9869 18.9591 34.9869 16.9927ZM41.1315 17.0254C41.1315 15.6639 40.0648 14.8188 38.9391 14.8188C37.6743 14.8188 36.7022 15.7577 36.7022 17.0148C36.7022 18.2994 37.6865 19.227 38.9339 19.227C40.0693 19.227 41.1315 18.3579 41.1315 17.0254Z" fill="white"/>
<path fill-rule="evenodd" clip-rule="evenodd" d="M47.5553 13.3935C45.2662 13.3935 43.6257 15.0549 43.6257 16.9927C43.6257 18.9591 45.2168 20.6515 47.5822 20.6515C49.7233 20.6515 51.4774 19.132 51.4774 17.0349C51.4774 14.6313 49.4371 13.3935 47.5553 13.3935ZM47.578 14.8188C48.7036 14.8188 49.7704 15.6639 49.7704 17.0254C49.7704 18.3579 48.7082 19.227 47.5727 19.227C46.3254 19.227 45.3413 18.2994 45.3413 17.0148C45.3413 15.7577 46.3131 14.8188 47.578 14.8188Z" fill="white"/>
<path fill-rule="evenodd" clip-rule="evenodd" d="M52.2644 17.0233C52.2644 15.1057 53.9161 13.3973 56.017 13.3973C56.9317 13.3973 57.6208 13.726 58.1246 14.2302V13.6155H59.7634V20.1365C59.7634 22.6986 58.1713 23.9199 56.0822 23.9199C54.1724 23.9199 53.0996 22.8297 52.5665 21.783L54.0689 21.1999C54.277 21.6675 54.8759 22.4922 56.0698 22.4922C57.3057 22.4922 58.1245 21.742 58.1245 20.49V19.7744C57.6872 20.2456 57.0949 20.6562 55.9807 20.6562C54.1791 20.6562 52.2644 19.2077 52.2644 17.0233ZM56.169 14.8199C57.1992 14.8199 58.257 15.6365 58.257 17.0311C58.257 18.4486 57.2014 19.2297 56.1463 19.2297C55.0264 19.2297 53.984 18.3854 53.984 17.0445C53.984 15.6513 55.0665 14.8199 56.169 14.8199Z" fill="white"/>
<path fill-rule="evenodd" clip-rule="evenodd" d="M63.7488 17.0128C63.7488 14.8526 65.4128 13.3885 67.3947 13.3885C68.9578 13.3885 70.1389 14.3565 70.6452 15.5153L70.9174 16.107L65.6761 18.1261C65.9892 18.6672 66.4946 19.2259 67.5933 19.226C68.5715 19.226 69.1578 18.7322 69.5085 18.2269L70.8596 19.0616C70.2538 19.8143 69.2388 20.6542 67.585 20.6542C65.6035 20.6542 63.7488 19.2986 63.7488 17.0128ZM67.4631 14.7844C68.1772 14.7844 68.6911 15.1368 68.9094 15.5595L65.4092 16.9177C65.2584 15.8662 66.3316 14.7844 67.4631 14.7844Z" fill="white"/>
<path d="M62.7993 20.4388H61.0777V9.74227H62.7993V20.4388Z" fill="white"/>
<path d="M84.1598 20.4388H85.8814V9.74227H84.1598V20.4388Z" fill="white"/>
<path fill-rule="evenodd" clip-rule="evenodd" d="M76.7519 20.4388H75.0303V9.74227L79.1948 9.74216C81.2135 9.74216 82.8651 11.2755 82.8651 13.1498C82.8651 15.0239 81.2135 16.5572 79.1948 16.5572H76.7519V20.4388ZM76.7519 14.9589V11.3405H79.1947C80.2633 11.3405 81.1436 12.1577 81.1436 13.1498C81.1436 14.1417 80.2633 14.9589 79.1947 14.9589H76.7519Z" fill="white"/>
<path d="M98.5922 23.9199L103.577 13.3888H101.697L99.4409 18.1544L97.1851 13.3888H95.3048L98.5007 20.1407L96.7119 23.9199H98.5922Z" fill="white"/>
<path fill-rule="evenodd" clip-rule="evenodd" d="M92.9273 20.4388H94.6489V16.5917C94.9183 12.6239 89.5001 11.6907 87.45 14.5511L88.8354 15.4141C89.8378 13.787 92.6983 14.1614 92.8863 15.9052C92.0266 15.6937 91.0979 15.5405 90.2494 15.6202C88.9249 15.7446 87.7909 16.5255 87.6107 17.8046C87.5133 18.4958 87.6795 19.3478 88.1992 19.867C89.0092 20.676 90.3389 20.785 91.4314 20.5086C92.0464 20.3529 92.5306 20.0136 92.9273 19.5754V20.4388ZM91.0221 19.1143C91.9644 18.8761 92.7071 18.2362 92.9273 17.3467C92.4456 17.2019 92.0024 17.085 91.4945 17.0281C88.5361 16.6152 89.0314 19.6182 91.0221 19.1143Z" fill="white"/>
<path d="M39.2774 5.93371H38.494V1.06585H39.2774V5.93371Z" fill="white"/>
<path d="M34.1063 5.93371H34.8899V1.79319H36.1759V1.06585H32.8203V1.79319H34.1063V5.93371Z" fill="white"/>
<path d="M31.9942 5.93371H28.9896V1.06585H31.9942V1.79319H29.7731V3.13611H31.7268V3.86345H29.7731V5.20626H31.9942V5.93371Z" fill="white"/>
<path d="M41.9847 5.93371V1.79319H43.2707V1.06585H39.9152V1.79319H41.2013V5.93371H41.9847Z" fill="white"/>
<path fill-rule="evenodd" clip-rule="evenodd" d="M45.2866 3.45782C45.2866 2.12698 46.503 0.89502 48.0754 0.89502C49.6477 0.89502 50.8641 2.12698 50.8641 3.45782C50.8641 4.75147 49.738 6.01297 48.0754 6.03293C46.4127 6.01297 45.2866 4.75147 45.2866 3.45782ZM48.0754 5.33216C47.0243 5.32018 46.1124 4.54871 46.1124 3.47036C46.1124 2.4204 46.9811 1.60982 48.0754 1.5967C49.1698 1.60982 50.0383 2.4204 50.0383 3.47036C50.0383 4.54871 49.1264 5.32018 48.0754 5.33216Z" fill="white"/>
<path d="M52.4302 5.93371H51.6467V1.06585H52.4302L54.9452 4.60984V1.06585H55.7287V5.93371H54.9465L52.4302 2.3879V5.93371Z" fill="white"/>
<path d="M1.37601 6.96679L10.2282 15.173L1.41851 23.4512C1.16142 23.2996 1.0236 22.9711 1.02127 22.5469L0.941431 7.85436C0.938974 7.38976 1.12101 7.10637 1.37601 6.96679Z" fill="white"/>
<path d="M2.38297 6.97785L13.1472 12.4302L10.5943 14.8289L2.00736 6.86826C2.13743 6.88411 2.268 6.91958 2.38297 6.97785Z" fill="white"/>
<path d="M13.6259 17.6392L10.9631 15.1706L13.6232 12.6712L17.2865 14.5265C18.1889 14.9834 17.7273 15.5549 17.2865 15.7789L13.6259 17.6392Z" fill="white"/>
<path d="M2.38297 23.352C2.30166 23.3942 2.22329 23.4273 2.14824 23.4535L10.5969 15.5148L13.1494 17.8811L2.38297 23.352Z" fill="white"/>
</svg>
