<svg width="103" height="24" viewBox="0 0 103 24" fill="none" xmlns="http://www.w3.org/2000/svg">
<path d="M14.9295 0.135742C15.0799 1.40482 14.5382 2.65539 13.7465 3.57461C12.9203 4.47953 11.5987 5.17167 10.3115 5.08253C10.143 3.86139 10.7952 2.56288 11.5253 1.77065C12.3506 0.871621 13.7836 0.182838 14.9295 0.135742Z" fill="white"/>
<path d="M19.1433 7.45659C18.9997 7.53619 16.6191 8.85536 16.6452 11.5456C16.6759 14.7944 19.7069 15.8684 19.7431 15.8793C19.725 15.955 19.2685 17.431 18.1316 18.9263C17.1823 20.245 16.1877 21.5342 14.6079 21.5561C13.8566 21.5726 13.3494 21.3721 12.8208 21.1632C12.2697 20.9454 11.6954 20.7185 10.797 20.7185C9.84472 20.7185 9.24492 20.9529 8.66655 21.179C8.16609 21.3747 7.68169 21.564 6.99885 21.5898C5.49425 21.6411 4.34474 20.1836 3.36099 18.8767C1.39441 16.2099 -0.136458 11.3615 1.91618 8.0622C2.91079 6.44411 4.72428 5.40211 6.66278 5.37436C7.51641 5.35815 8.33513 5.66358 9.05286 5.93133C9.60172 6.13608 10.0915 6.3188 10.4927 6.3188C10.845 6.3188 11.3211 6.14339 11.8759 5.93894C12.7503 5.61674 13.8204 5.22244 14.9105 5.32894C15.656 5.34913 17.7775 5.60227 19.1462 7.455L19.1433 7.45659Z" fill="white"/>
<path fill-rule="evenodd" clip-rule="evenodd" d="M30.0406 0.860056H27.9142V6.73393H30.0406C31.9215 6.73393 33.0264 5.64708 33.0264 3.79496C33.0264 1.94691 31.9171 0.860056 30.0406 0.860056ZM28.7034 1.51949V6.07449H29.988C31.4217 6.07449 32.2197 5.26037 32.2197 3.8031C32.2197 2.33361 31.4261 1.51949 29.988 1.51949H28.7034Z" fill="white"/>
<path fill-rule="evenodd" clip-rule="evenodd" d="M36.0747 6.8072C34.812 6.8072 33.9614 5.96459 33.9614 4.61722C33.9614 3.26578 34.812 2.42724 36.0747 2.42724C37.3331 2.42724 38.1836 3.26578 38.1836 4.61722C38.1836 5.96459 37.3331 6.8072 36.0747 6.8072ZM37.4076 4.61722C37.4076 5.61452 36.8815 6.1844 36.0747 6.1844C35.268 6.1844 34.7375 5.61452 34.7375 4.61722C34.7375 3.61992 35.268 3.05004 36.0747 3.05004C36.8815 3.05004 37.4076 3.61992 37.4076 4.61722Z" fill="white"/>
<path d="M43.0033 6.73393H43.7793L45.0508 2.50051H44.2967L43.3847 5.94423H43.3672L42.3325 2.50051H41.5959L40.5656 5.94423H40.548L39.6361 2.50051H38.8775L40.1534 6.73393H40.9295L41.9554 3.4571H41.9729L43.0033 6.73393Z" fill="white"/>
<path d="M46.6918 2.50051H45.9727V6.73393H46.7356V4.24272C46.7356 3.5263 47.2047 3.05411 47.9238 3.05411C48.6253 3.05411 48.9717 3.4286 48.9717 4.11246V6.73393H49.7345V3.98628C49.7345 3.02561 49.1558 2.42724 48.1562 2.42724C47.4503 2.42724 46.9636 2.72032 46.7093 3.17623H46.6918V2.50051Z" fill="white"/>
<path d="M51.0423 0.860056V6.73393H51.8052V0.860056H51.0423Z" fill="white"/>
<path fill-rule="evenodd" clip-rule="evenodd" d="M52.9112 4.61722C52.9112 5.96459 53.7618 6.8072 55.0245 6.8072C56.2828 6.8072 57.1334 5.96459 57.1334 4.61722C57.1334 3.26578 56.2828 2.42724 55.0245 2.42724C53.7618 2.42724 52.9112 3.26578 52.9112 4.61722ZM55.0245 6.1844C55.8312 6.1844 56.3574 5.61452 56.3574 4.61722C56.3574 3.61992 55.8312 3.05004 55.0245 3.05004C54.2178 3.05004 53.6872 3.61992 53.6872 4.61722C53.6872 5.61452 54.2178 6.1844 55.0245 6.1844Z" fill="white"/>
<path fill-rule="evenodd" clip-rule="evenodd" d="M59.5329 6.8072C58.6253 6.8072 58.0158 6.29838 58.0158 5.53717C58.0158 4.81261 58.6165 4.3567 59.6688 4.29971L60.9753 4.23051V3.87637C60.9753 3.3594 60.607 3.05004 59.9757 3.05004C59.3882 3.05004 59.0199 3.30649 58.9234 3.72169H58.1868C58.2394 2.98898 58.9146 2.42724 59.9932 2.42724C61.063 2.42724 61.7382 2.96456 61.7382 3.80717V6.73393H61.0148V6.00529H60.9972C60.7254 6.48969 60.1467 6.8072 59.5329 6.8072ZM60.9753 5.12604C60.9753 5.73663 60.4229 6.20475 59.7038 6.20475C59.1558 6.20475 58.7919 5.94016 58.7919 5.53717C58.7919 5.13826 59.1426 4.88588 59.7565 4.84924L60.9753 4.78004V5.12604Z" fill="white"/>
<path fill-rule="evenodd" clip-rule="evenodd" d="M62.7829 4.61722C62.7829 5.94423 63.5721 6.8072 64.7339 6.8072C65.3916 6.8072 65.9133 6.50598 66.2071 6.0175H66.2203V6.73393H66.9481V0.860056H66.1852V3.18844H66.1676C65.8958 2.72439 65.3697 2.42724 64.7164 2.42724C63.5677 2.42724 62.7829 3.2902 62.7829 4.61722ZM64.8786 3.05004C64.0719 3.05004 63.5633 3.66063 63.5633 4.61722C63.5633 5.57788 64.0719 6.1844 64.8786 6.1844C65.6634 6.1844 66.1896 5.56567 66.1896 4.61722C66.1896 3.67284 65.6634 3.05004 64.8786 3.05004Z" fill="white"/>
<path fill-rule="evenodd" clip-rule="evenodd" d="M72.3082 6.8072C71.0455 6.8072 70.1949 5.96459 70.1949 4.61722C70.1949 3.26578 71.0455 2.42724 72.3082 2.42724C73.5665 2.42724 74.4171 3.26578 74.4171 4.61722C74.4171 5.96459 73.5665 6.8072 72.3082 6.8072ZM73.641 4.61722C73.641 5.61452 73.1149 6.1844 72.3082 6.1844C71.5014 6.1844 70.9709 5.61452 70.9709 4.61722C70.9709 3.61992 71.5014 3.05004 72.3082 3.05004C73.1149 3.05004 73.641 3.61992 73.641 4.61722Z" fill="white"/>
<path d="M76.2027 2.50051H75.4837V6.73393H76.2466V4.24272C76.2466 3.5263 76.7157 3.05411 77.4347 3.05411C78.1362 3.05411 78.4826 3.4286 78.4826 4.11246V6.73393H79.2455V3.98628C79.2455 3.02561 78.6668 2.42724 77.6671 2.42724C76.9612 2.42724 76.4745 2.72032 76.2203 3.17623H76.2027V2.50051Z" fill="white"/>
<path d="M83.6629 1.47879H82.9001V2.50051H82.2205V3.0826H82.9001V5.63487C82.9001 6.44899 83.2245 6.7665 84.0619 6.7665C84.2417 6.7665 84.4521 6.75428 84.5442 6.73393V6.13962C84.4916 6.14776 84.3162 6.15998 84.2285 6.15998C83.8383 6.15998 83.6629 5.98494 83.6629 5.59823V3.0826H84.5486V2.50051H83.6629V1.47879Z" fill="white"/>
<path d="M85.6985 0.860056V6.73393H86.4614V4.26715C86.4614 3.53444 86.9305 3.05411 87.689 3.05411C88.4037 3.05411 88.7676 3.4571 88.7676 4.12875V6.73393H89.5305V3.99849C89.5305 3.05411 88.9254 2.42724 87.9258 2.42724C87.233 2.42724 86.7332 2.70404 86.4789 3.17623H86.4614V0.860056H85.6985Z" fill="white"/>
<path fill-rule="evenodd" clip-rule="evenodd" d="M94.5737 5.52089H93.824C93.6968 5.91981 93.2716 6.19254 92.6928 6.19254C91.8729 6.19254 91.3599 5.65929 91.3599 4.84924V4.80854H94.6307V4.53988C94.6307 3.25764 93.8722 2.42724 92.6402 2.42724C91.3819 2.42724 90.5751 3.3187 90.5751 4.6335C90.5751 5.96459 91.3687 6.8072 92.6753 6.8072C93.6705 6.8072 94.4422 6.26174 94.5737 5.52089ZM92.627 3.0419C91.9124 3.0419 91.4126 3.55072 91.3643 4.25494H93.8415C93.824 3.54665 93.3461 3.0419 92.627 3.0419Z" fill="white"/>
<path fill-rule="evenodd" clip-rule="evenodd" d="M35.3021 21.1335L34.1972 18.1027H29.5936L28.4887 21.1335H26.5384L30.8993 9.91973H32.9249L37.2858 21.1335H35.3021ZM30.0707 16.7039L31.8703 11.7848H31.9205L33.7201 16.7039H30.0707Z" fill="white"/>
<path fill-rule="evenodd" clip-rule="evenodd" d="M47.1021 17.0459C47.1021 14.4581 45.629 12.8261 43.3941 12.8261C42.1218 12.8261 41.109 13.4245 40.5901 14.3648H40.5566V12.9582H38.8072V23.8378H40.6152V19.7891H40.657C41.1593 20.6983 42.1637 21.2734 43.4276 21.2734C45.6373 21.2734 47.1021 19.6337 47.1021 17.0459ZM42.917 19.8513C44.3483 19.8513 45.2439 18.7633 45.2439 17.0459C45.2439 15.3362 44.3483 14.2405 42.917 14.2405C41.5359 14.2405 40.6068 15.3595 40.6068 17.0459C40.6068 18.7477 41.5275 19.8513 42.917 19.8513Z" fill="white"/>
<path fill-rule="evenodd" clip-rule="evenodd" d="M53.4867 12.8261C55.7215 12.8261 57.1947 14.4581 57.1947 17.0459C57.1947 19.6337 55.7299 21.2734 53.5201 21.2734C52.2562 21.2734 51.2518 20.6983 50.7496 19.7891H50.7077V23.8378H48.8998V12.9582H50.6491V14.3648H50.6826C51.2016 13.4245 52.2144 12.8261 53.4867 12.8261ZM55.3365 17.0459C55.3365 18.7633 54.4409 19.8513 53.0095 19.8513C51.6201 19.8513 50.6994 18.7477 50.6994 17.0459C50.6994 15.3595 51.6285 14.2405 53.0095 14.2405C54.4409 14.2405 55.3365 15.3362 55.3365 17.0459Z" fill="white"/>
<path d="M64.4059 18.0095H62.556C62.6732 20.0378 64.4812 21.32 67.1597 21.32C70.0223 21.32 71.8219 20.0067 71.8219 17.9085C71.8219 16.2688 70.7924 15.344 68.3148 14.8L66.9839 14.4969C65.427 14.1395 64.7909 13.6732 64.7909 12.8805C64.7909 11.8858 65.7869 11.202 67.2434 11.202C68.6998 11.202 69.6959 11.8781 69.8047 12.9971H71.6294C71.5708 11.0621 69.8214 9.73322 67.2685 9.73322C64.6904 9.73322 62.8741 11.0621 62.8741 12.9971C62.8741 14.5591 63.9036 15.5227 66.1218 16.0201L67.687 16.3698C69.2522 16.7273 69.9135 17.2479 69.9135 18.1183C69.9135 19.1208 68.817 19.8513 67.2936 19.8513C65.7032 19.8513 64.5398 19.1208 64.4059 18.0095Z" fill="white"/>
<path d="M76.0385 11.0232H74.2222V12.9582H72.9415V14.2871H74.2222V18.9809C74.2222 20.5584 74.9169 21.1879 76.6998 21.1879C77.1015 21.1879 77.5033 21.1568 77.7042 21.1102V19.7813C77.587 19.8046 77.2941 19.8202 77.1099 19.8202C76.3733 19.8202 76.0385 19.5016 76.0385 18.7944V14.2871H77.7126V12.9582H76.0385V11.0232Z" fill="white"/>
<path fill-rule="evenodd" clip-rule="evenodd" d="M78.9996 17.0459C78.9996 19.6803 80.6569 21.2889 83.1764 21.2889C85.6958 21.2889 87.3531 19.6803 87.3531 17.0459C87.3531 14.4192 85.6874 12.8106 83.1764 12.8106C80.6653 12.8106 78.9996 14.4192 78.9996 17.0459ZM83.1764 19.9056C84.5993 19.9056 85.5117 18.8643 85.5117 17.0459C85.5117 15.2352 84.5909 14.1939 83.1764 14.1939C81.7618 14.1939 80.8411 15.2352 80.8411 17.0459C80.8411 18.8643 81.7618 19.9056 83.1764 19.9056Z" fill="white"/>
<path d="M89.1591 12.9582H90.8834V14.3493H90.9252C91.2182 13.3934 92.005 12.8261 93.0429 12.8261C93.3024 12.8261 93.5284 12.865 93.6623 12.8883V14.4503C93.52 14.3959 93.2019 14.3571 92.8504 14.3571C91.6869 14.3571 90.9671 15.0798 90.9671 16.2377V21.1335H89.1591V12.9582Z" fill="white"/>
<path fill-rule="evenodd" clip-rule="evenodd" d="M101.026 18.738H102.742C102.491 20.2301 100.968 21.2947 98.9503 21.2947C96.3639 21.2947 94.7987 19.6706 94.7987 17.0905C94.7987 14.5261 96.389 12.8164 98.875 12.8164C101.319 12.8164 102.842 14.4173 102.842 16.8963V17.4713H96.6234V17.5723C96.6234 18.9945 97.5441 19.9348 98.9921 19.9348C100.022 19.9348 100.783 19.453 101.026 18.738ZM96.6234 16.3944L101.026 16.3558C101.026 16.0113 100.871 15.3728 100.506 15.0342C100.141 14.6956 99.6044 14.4385 98.875 14.4385C97.4062 14.4385 96.6234 15.3496 96.6234 16.3944Z" fill="white"/>
</svg>
