<svg width="32" height="31" viewBox="0 0 32 31" fill="none" xmlns="http://www.w3.org/2000/svg">
<path fill-rule="evenodd" clip-rule="evenodd" d="M21.9644 12.408C21.97 12.5316 21.9738 12.6552 21.9738 12.7806C21.9738 16.583 18.8781 20.9684 13.2175 20.9684C11.4794 20.9684 9.86219 20.4923 8.5 19.6761C8.74094 19.7024 8.98562 19.7156 9.23406 19.7156C10.6759 19.7156 12.0025 19.2561 13.0562 18.4837C11.7091 18.4609 10.5728 17.6289 10.1809 16.4857C10.3694 16.519 10.5616 16.5365 10.7603 16.5365C11.0406 16.5365 11.3125 16.5014 11.5712 16.4357C10.1631 16.1718 9.10281 15.0084 9.10281 13.6143C9.10281 13.6021 9.10281 13.5898 9.10281 13.5775C9.51719 13.7932 9.9925 13.923 10.4969 13.9379C9.67094 13.4215 9.12719 12.5403 9.12719 11.5426C9.12719 11.0148 9.27906 10.5203 9.54437 10.0951C11.0622 11.8363 13.33 12.9822 15.8875 13.1023C15.835 12.8919 15.8078 12.6719 15.8078 12.4465C15.8078 10.857 17.1859 9.56821 18.8847 9.56821C19.7706 9.56821 20.5703 9.91803 21.1309 10.4774C21.8322 10.3485 22.4912 10.1092 23.0856 9.7795C22.8559 10.4511 22.3675 11.0148 21.7328 11.3717C22.3553 11.3015 22.9478 11.1472 23.5 10.9184C23.0875 11.4953 22.5653 12.002 21.9644 12.408ZM16 1.24097C7.71531 1.24097 1 7.52103 1 15.2687C1 23.0156 7.71531 29.2965 16 29.2965C24.2847 29.2965 31 23.0156 31 15.2687C31 7.52103 24.2847 1.24097 16 1.24097Z" fill="#BDC4CD"/>
</svg>
