<svg width="20" height="19" viewBox="0 0 20 19" fill="none" xmlns="http://www.w3.org/2000/svg">
<path d="M14.5 0.607666C12.76 0.607666 11.09 1.41767 10 2.69767C8.91 1.41767 7.24 0.607666 5.5 0.607666C2.42 0.607666 0 3.02767 0 6.10767C0 9.88767 3.4 12.9677 8.55 17.6477L10 18.9577L11.45 17.6377C16.6 12.9677 20 9.88767 20 6.10767C20 3.02767 17.58 0.607666 14.5 0.607666ZM10.1 16.1577L10 16.2577L9.9 16.1577C5.14 11.8477 2 8.99767 2 6.10767C2 4.10767 3.5 2.60767 5.5 2.60767C7.04 2.60767 8.54 3.59767 9.07 4.96767H10.94C11.46 3.59767 12.96 2.60767 14.5 2.60767C16.5 2.60767 18 4.10767 18 6.10767C18 8.99767 14.86 11.8477 10.1 16.1577Z" fill="#0D6EFD"/>
</svg>
