<svg width="32" height="31" viewBox="0 0 32 31" fill="none" xmlns="http://www.w3.org/2000/svg">
<path fill-rule="evenodd" clip-rule="evenodd" d="M23.5 15.7983C23.5 16.9337 23.35 18.069 23.35 18.069C23.35 18.069 23.2038 19.0352 22.7537 19.4613C22.1838 20.0198 21.5444 20.0224 21.2509 20.0548C19.1519 20.1969 16 20.2013 16 20.2013C16 20.2013 12.1 20.1679 10.9 20.061C10.5662 20.0022 9.81625 20.0198 9.24625 19.4613C8.79625 19.0352 8.65 18.069 8.65 18.069C8.65 18.069 8.5 16.9337 8.5 15.7983V14.7339C8.5 13.5986 8.65 12.4641 8.65 12.4641C8.65 12.4641 8.79625 11.497 9.24625 11.0709C9.81625 10.5125 10.4556 10.5098 10.7491 10.4774C12.8481 10.3354 15.9972 10.3354 15.9972 10.3354H16.0028C16.0028 10.3354 19.1519 10.3354 21.2509 10.4774C21.5444 10.5098 22.1838 10.5125 22.7537 11.0709C23.2038 11.497 23.35 12.4641 23.35 12.4641C23.35 12.4641 23.5 13.5986 23.5 14.7339V15.7983ZM16 1.24097C7.71531 1.24097 1 7.52103 1 15.2687C1 23.0156 7.71531 29.2965 16 29.2965C24.2847 29.2965 31 23.0156 31 15.2687C31 7.52103 24.2847 1.24097 16 1.24097ZM14.4514 17.088L18.5042 15.1241L14.4505 13.1462L14.4514 17.088Z" fill="#BDC4CD"/>
</svg>
